<svg width="46" height="46" viewBox="0 0 46 46" fill="none" xmlns="http://www.w3.org/2000/svg">
<path d="M33.9893 0H12.0107C5.37738 0 0 5.37738 0 12.0107V33.9893C0 40.6226 5.37738 46 12.0107 46H33.9893C40.6226 46 46 40.6226 46 33.9893V12.0107C46 5.37738 40.6226 0 33.9893 0Z" fill="#1E30D4"/>
<path d="M26.0777 33.505C26.0473 33.5088 26.0194 33.5238 25.9996 33.5472C25.9797 33.5706 25.9694 33.6005 25.9706 33.6312V35.9172C25.9723 35.9492 25.9612 35.9805 25.9398 36.0043C25.9184 36.0281 25.8885 36.0425 25.8565 36.0443H20.1424C20.1104 36.0425 20.0803 36.0281 20.0588 36.0044C20.0373 35.9806 20.026 35.9493 20.0273 35.9172V33.6542C20.0281 33.6239 20.0175 33.5944 19.9977 33.5715C19.9779 33.5485 19.9503 33.5338 19.9202 33.5301C14.7106 33.1998 10.701 31.7795 10.0434 26.6149C10.0405 26.5975 10.0411 26.5796 10.0454 26.5624C10.0497 26.5452 10.0575 26.5291 10.0683 26.5151C10.0791 26.5011 10.0927 26.4895 10.1082 26.481C10.1238 26.4725 10.1409 26.4673 10.1585 26.4658H17.7753C17.7946 26.4664 17.8133 26.472 17.8297 26.4822C17.846 26.4924 17.8594 26.5068 17.8684 26.5238C18.3248 27.3195 19.0815 27.805 20.0283 28.0892C20.8881 28.3464 21.904 28.4385 23 28.4385C23.9974 28.4482 24.9932 28.3553 25.9716 28.1613C27.2147 27.891 28.2617 27.5928 28.1856 26.6039C28.1436 26.0674 27.5971 25.6811 25.9716 25.5099C25.0998 25.4188 24.0269 25.3508 22.8438 25.2917C21.951 25.2437 20.9972 25.1916 20.0283 25.1176C15.209 24.7432 10.0134 23.7674 10.0254 19.5536C10.0254 14.6713 14.4894 12.9247 19.9222 12.4983C19.9525 12.4948 19.9803 12.4799 20 12.4567C20.0197 12.4335 20.0298 12.4036 20.0283 12.3732V10.0832C20.027 10.0511 20.0383 10.0198 20.0598 9.99601C20.0814 9.97222 20.1114 9.95787 20.1434 9.95605H25.8575C25.8895 9.95786 25.9194 9.97225 25.9408 9.99607C25.9622 10.0199 25.9733 10.0512 25.9716 10.0832V12.3552C25.9704 12.3861 25.981 12.4164 26.0013 12.4398C26.0215 12.4632 26.0499 12.478 26.0807 12.4813C31.2854 12.8176 35.3009 14.2018 35.9575 19.4035C35.9605 19.4209 35.9598 19.4388 35.9554 19.456C35.9511 19.4732 35.9432 19.4893 35.9323 19.5032C35.9213 19.5172 35.9076 19.5287 35.892 19.537C35.8763 19.5454 35.8591 19.5503 35.8414 19.5516H28.2276C28.2082 19.5513 28.1892 19.5457 28.1726 19.5355C28.1561 19.5253 28.1426 19.5108 28.1336 19.4936C27.6771 18.6828 26.9205 18.1984 25.9726 17.9182C25.1139 17.6649 24.098 17.5799 23.001 17.5799C22.0191 17.5799 20.9441 17.6459 20.0293 17.8431C18.7842 18.1113 17.8124 18.3986 17.8124 19.3034C17.8124 19.8419 18.1547 20.2783 20.0293 20.4985C20.9001 20.5985 21.9741 20.6526 23.1581 20.7116C24.0509 20.7597 25.0048 20.8117 25.9726 20.8858C30.7919 21.2601 35.9765 22.212 35.9765 26.4638C35.9745 31.3181 31.5106 33.0827 26.0777 33.505Z" fill="white"/>
</svg>
